<?xml version="1.0" ?><!DOCTYPE svg  PUBLIC '-//W3C//DTD SVG 1.1//EN'  'http://www.w3.org/Graphics/SVG/1.1/DTD/svg11.dtd'><svg enable-background="new 0 0 64 64" height="64px" id="Layer_1" version="1.1" viewBox="0 0 64 64" width="64px" xml:space="preserve" xmlns="http://www.w3.org/2000/svg" xmlns:xlink="http://www.w3.org/1999/xlink"><g><path d="M12.4,44.3c0.3,0,4.7,0,6.6,0c0,0,0,0,0,0c0.3,0,0.5-0.1,0.7-0.3c0.2-0.2,0.3-0.4,0.3-0.7V34h4v6c0,0.6,0.4,1,1,1   s1-0.4,1-1v-6h4v10c0,0.6,0.4,1,1,1s1-0.4,1-1V34h4v12c0,0.6,0.4,1,1,1s1-0.4,1-1V34h4v10c0,0.6,0.4,1,1,1s1-0.4,1-1V34h4v6   c0,0.6,0.4,1,1,1s1-0.4,1-1v-6h4l6.2,9.4c0.2,0.3,0.5,0.5,0.8,0.5c0.1,0,0.2,0,0.3,0c0.4-0.1,0.7-0.5,0.7-1V23.1   c0-0.4-0.3-0.8-0.7-1c-0.4-0.1-0.9,0-1.1,0.4L54,32h-4v-6c0-0.6-0.4-1-1-1s-1,0.4-1,1v6h-4V22c0-0.6-0.4-1-1-1s-1,0.4-1,1v10h-4V20   c0-0.6-0.4-1-1-1s-1,0.4-1,1v12h-4V22c0-0.6-0.4-1-1-1s-1,0.4-1,1v10h-4v-6c0-0.6-0.4-1-1-1s-1,0.4-1,1v6h-4V21.1   c0-0.3-0.1-0.5-0.3-0.7c-0.2-0.2-0.4-0.3-0.7-0.3c0,0,0,0,0,0c-1.9,0-6.3,0-6.6,0C6.2,20.7,1.5,25.9,1.5,32.3   C1.5,38.6,6.2,43.8,12.4,44.3z M60,26.5v13L55.7,33L60,26.5z M12.5,22.2c0.3,0,3.2,0,5.5,0v20.2c-2.3,0-5.1,0-5.4,0   c-5.2-0.4-9.1-4.8-9.1-10.1C3.5,26.9,7.4,22.6,12.5,22.2z"/><path d="M11,35.3c2.3,0,4.2-1.9,4.2-4.2c0-2.3-1.9-4.2-4.2-4.2c-2.3,0-4.2,1.9-4.2,4.2C6.7,33.4,8.6,35.3,11,35.3z M11,28.9   c1.2,0,2.2,1,2.2,2.2c0,1.2-1,2.2-2.2,2.2c-1.2,0-2.2-1-2.2-2.2C8.7,29.9,9.7,28.9,11,28.9z"/></g></svg>